<?xml version="1.0" encoding="UTF-8" standalone="no"?>
<!-- Created with Inkscape (http://www.inkscape.org/) -->

<svg
   width="529.29236"
   height="409.49487"
   viewBox="0 0 140.04265 108.34565"
   version="1.1"
   id="svg1"
   xmlns:xlink="http://www.w3.org/1999/xlink"
   xmlns="http://www.w3.org/2000/svg"
   xmlns:svg="http://www.w3.org/2000/svg">
  <defs
     id="defs1">
    <rect
       x="-112.30649"
       y="-52.974757"
       width="706.68326"
       height="598.61476"
       id="rect1" />
    <linearGradient
       id="linearGradient17">
      <stop
         style="stop-color:#000203;stop-opacity:0.01851852;"
         offset="0"
         id="stop17" />
      <stop
         style="stop-color:#000000;stop-opacity:0;"
         offset="1"
         id="stop18" />
    </linearGradient>
    <linearGradient
       xlink:href="#linearGradient17"
       id="linearGradient18"
       x1="41.888018"
       y1="62.42097"
       x2="120.08954"
       y2="62.42097"
       gradientUnits="userSpaceOnUse" />
  </defs>
  <g
     id="layer1"
     transform="translate(-5.0879279,-9.471831)">
    <text
       xml:space="preserve"
       transform="matrix(0.26458468,0,0,0.26458468,5.0879279,9.4716207)"
       id="text1"
       style="fill:#000000;font-size:99.41014099px;-inkscape-font-specification:'Amsterdam Handwriting, Normal';font-family:'Amsterdam Handwriting';text-orientation:auto;line-height:0;direction:rtl;letter-spacing:0.29px;word-spacing:0px;fill-rule:evenodd;stroke-width:0.48755906;stroke-linejoin:round;stroke-linecap:round;paint-order:stroke fill markers;stroke:#900164;text-align:start;writing-mode:lr-tb;white-space:pre;shape-inside:url(#rect1)" />
    <path
       d="m 34.389757,20.775049 q 0.293972,-1.028903 0.832922,-1.567852 0.587944,-0.587945 1.126894,-0.587945 0.489954,0 0.734931,0.538949 0.293972,0.489954 0.195981,1.567853 -0.09799,0.783926 -1.077898,3.72365 -0.979908,2.939724 -2.596757,7.398306 -1.567852,4.409586 -3.625659,10.093052 -2.008811,5.634471 -4.164609,11.856887 -2.155798,6.222415 -4.360591,12.689808 -2.155797,6.418397 -4.066618,12.493827 -1.861825,6.07543 -3.282692,11.415928 -1.371871,5.389494 -2.057806,9.407117 -0.636941,4.017621 -0.440959,6.369401 0.244977,2.40078 1.714839,2.44977 0.734931,0.049 2.596756,-2.1068 1.861825,-2.1068 4.556572,-5.87945 2.743743,-3.72365 6.173421,-8.819171 3.429678,-5.095522 7.251319,-10.97497 3.870636,-5.928443 8.035245,-12.346841 4.164609,-6.418397 8.329218,-12.787799 4.164609,-6.369402 8.182232,-12.444831 4.017623,-6.124425 7.643282,-11.317938 3.62566,-5.242507 6.663375,-9.309125 3.037714,-4.115614 5.242507,-6.565384 0.342968,-0.391963 0.636941,-0.440959 0.342967,-0.04899 0.489954,0.09799 0.146986,0.146986 0.09799,0.440959 0,0.293972 -0.342967,0.685935 -1.910821,2.057807 -4.752554,5.977439 -2.792738,3.919632 -6.222416,9.113144 -3.429678,5.193513 -7.34931,11.366933 -3.919632,6.17342 -8.084241,12.738804 -4.164609,6.516388 -8.378213,13.179762 -4.213604,6.614379 -8.280223,12.7878 -4.017622,6.124425 -7.741273,11.464923 -3.72365,5.340499 -6.859356,9.260128 -3.08671,3.96863 -5.487484,6.22242 -2.35178,2.30278 -3.723651,2.30278 -0.440958,0 -0.685935,-0.19598 -1.7638347,-1.12689 -2.1557979,-4.2626 -0.3429678,-3.08671 0.3919632,-7.692277 0.7349307,-4.605567 2.3517787,-10.485015 1.616849,-5.879448 3.772646,-12.493827 2.155798,-6.614379 4.654563,-13.767707 2.547761,-7.153329 5.046526,-14.306657 2.498766,-7.153328 4.850545,-14.110675 2.351779,-6.957347 4.164609,-13.179763 z"
       id="text2"
       style="font-size:48.9954px;line-height:0;font-family:'Amsterdam Handwriting';-inkscape-font-specification:'Amsterdam Handwriting, Normal';letter-spacing:0.14293px;word-spacing:0px;direction:rtl;fill-rule:evenodd;stroke:#900164;stroke-width:0.2403;stroke-linecap:round;stroke-linejoin:round;paint-order:stroke fill markers"
       transform="scale(0.96095857,1.0406276)"
       aria-label="V" />
    <path
       d="m 127.56068,41.673023 q -0.63694,0.489954 -1.17589,0.587945 -0.53895,0.09799 -0.83292,-0.04899 -0.24498,-0.195982 -0.14699,-0.53895 0.098,-0.391963 0.73493,-0.881917 3.77265,-2.743742 6.85936,-5.634471 3.08671,-2.890728 5.38949,-5.634471 2.30279,-2.743742 3.82164,-5.193512 1.51886,-2.498766 2.1558,-4.360591 0.63694,-1.91082 0.34297,-3.08671 -0.24498,-1.224885 -1.51886,-1.420866 -2.74374,-0.440959 -6.95735,0.587944 -4.2136,1.028904 -9.16214,3.08671 -4.89954,2.008812 -10.19104,4.850545 -5.24251,2.792738 -10.19104,5.977439 -4.89954,3.135705 -9.06415,6.418397 -4.164609,3.233696 -6.908352,6.124425 -2.743742,2.890729 -3.674655,5.242508 -0.881917,2.302784 0.734931,3.576664 1.763835,1.371871 5.193513,2.400774 3.429678,1.028904 7.741273,2.008812 4.3116,0.930912 9.06415,1.959816 4.75255,1.028903 9.11314,2.44977 4.40959,1.371871 7.98625,3.282692 3.62566,1.91082 5.63447,4.654563 5.92845,-1.224885 10.09306,-1.910821 4.16461,-0.734931 5.58547,-1.077899 0.29397,-0.09799 0.39197,0.049 0.14698,0.146986 0.19598,0.391963 0.049,0.195981 -0.049,0.391963 -0.049,0.195982 -0.19598,0.244977 -2.98872,0.587945 -6.90835,1.371871 -3.87064,0.734931 -8.37821,1.714839 0.9799,1.714839 1.17588,3.772646 0.24498,2.057807 -0.39196,4.507577 -0.63694,2.44977 -2.25379,5.291503 -1.61684,2.890728 -4.36059,6.271411 -4.40958,5.389494 -9.70109,9.26013 -5.2425,3.87064 -10.68099,6.3694 -5.43849,2.49877 -10.778991,3.67466 -5.340499,1.17589 -9.946067,1.17589 -3.674654,0 -6.663374,-0.73493 -3.037715,-0.68594 -5.046526,-2.00882 -2.008811,-1.32287 -2.890729,-3.28269 -0.881917,-1.91082 -0.244977,-4.360588 0.587945,-2.44977 2.841734,-5.389494 2.253788,-2.890728 6.467392,-6.222415 3.086711,-2.44977 6.859356,-4.556573 3.772646,-2.106802 7.88826,-3.968627 4.164609,-1.81283 8.574192,-3.331687 4.45858,-1.567853 8.86817,-2.841733 4.45858,-1.273881 8.72118,-2.302784 4.2626,-1.077899 8.13324,-1.910821 -1.71484,-2.204793 -4.75256,-3.72365 -2.98872,-1.518857 -6.76136,-2.596756 -3.77265,-1.126894 -7.98625,-1.910821 -4.21361,-0.832922 -8.23123,-1.616848 -4.017622,-0.832922 -7.594286,-1.763834 -3.576664,-0.930913 -6.075429,-2.302784 -2.44977,-1.420867 -3.576664,-3.380683 -1.126895,-1.959816 -0.293973,-4.752553 0.63694,-2.057807 2.792738,-4.605568 2.204793,-2.547761 5.487485,-5.340499 3.331687,-2.792737 7.447299,-5.63447 4.16461,-2.890729 8.67219,-5.585476 4.55657,-2.694747 9.21113,-5.046526 4.70356,-2.351779 9.01516,-4.115614 4.31159,-1.763834 8.03524,-2.743742 3.77265,-1.028903 6.4184,-1.028903 2.00881,0 3.23369,0.63694 2.05781,1.077899 2.44977,2.939724 0.39197,1.861825 -0.53894,4.262599 -0.88192,2.35178 -2.84174,5.095522 -1.91082,2.743742 -4.55657,5.585476 -2.59676,2.792737 -5.68347,5.53648 -3.03771,2.743742 -6.12442,5.095521 z m 3.03771,28.172355 q -6.17342,1.371871 -12.93478,3.184701 -6.76137,1.81283 -13.22876,4.066618 -6.467392,2.302784 -12.24885,5.095522 -5.781457,2.792737 -10.093052,6.17342 -3.821641,2.988719 -5.879448,5.585475 -2.057807,2.645752 -2.645751,4.80155 -0.587945,2.204796 0.146986,3.919636 0.734931,1.71483 2.498765,2.89072 1.763835,1.22489 4.409586,1.86183 2.645752,0.63694 5.928443,0.63694 4.164609,0 9.015154,-1.12689 4.899537,-1.0779 9.897067,-3.38069 5.04653,-2.30278 9.89707,-5.928441 4.85055,-3.625659 8.96616,-8.721181 2.74374,-3.380682 4.36059,-6.17342 1.61685,-2.792738 2.30279,-5.144517 0.73493,-2.351779 0.58794,-4.2626 -0.14698,-1.91082 -0.97991,-3.478673 z"
       id="text3"
       style="font-size:48.9954px;line-height:0;font-family:'Amsterdam Handwriting';-inkscape-font-specification:'Amsterdam Handwriting, Normal';letter-spacing:0.14293px;word-spacing:0px;direction:rtl;fill-rule:evenodd;stroke:#900164;stroke-width:0.2403;stroke-linecap:round;stroke-linejoin:round;paint-order:stroke fill markers"
       transform="scale(0.96095857,1.0406276)"
       aria-label="S" />
  </g>
</svg>
